<?xml version="1.0" encoding="utf-8"?>
<!-- Generator: Adobe Illustrator 24.1.1, SVG Export Plug-In . SVG Version: 6.00 Build 0)  -->
<svg version="1.1" id="Layer_1" xmlns="http://www.w3.org/2000/svg" xmlns:xlink="http://www.w3.org/1999/xlink" x="0px" y="0px"
	 viewBox="0 0 822 306" style="enable-background:new 0 0 822 306;" xml:space="preserve">
<style type="text/css">
	.st0{opacity:0.63;fill:#4F81BD;}
	.st1{fill:#FF2323;}
	.st2{opacity:0.53;fill:#4F81BD;}
</style>
<path class="st0" d="M87.1,17.6h-77v60.9h18C29.6,44.5,55.4,17.6,87.1,17.6z"/>
<path class="st1" d="M145.6,17.6h77v60.9h-18C203.1,44.5,177.3,17.6,145.6,17.6z"/>
<path class="st0" d="M145.4,70.9l0.2,1.6C145.5,71.9,145.5,71.4,145.4,70.9z"/>
<path class="st2" d="M145.4,70.9l0.2,1.6C145.5,71.9,145.5,71.4,145.4,70.9z"/>
<path class="st0" d="M187.2,200.6v53.1h26.3v-53.5c0-15,7.2-22.6,21.6-22.6h8.8v-26.8h-3.7C205.7,150.8,188,167.4,187.2,200.6z"/>
<path class="st0" d="M296.9,149.3c-23.7,0-37.2,9.3-40.3,28.4h25.9c1.4-4.9,6.4-7.2,15.6-7.2c10.7,0,16.1,2.9,16.7,8.8
	c0,5.6-5.6,8.9-16.7,10.3c-26.1,2.5-44,9.1-44.5,33.8c0,22.8,17.1,34.2,41.8,32.3c27.8-1.9,44.9-14.6,44.9-43v-35
	C339.7,158.6,325.3,149.3,296.9,149.3z M315.2,211.5c0,14.6-8.8,23.1-23.1,23.1c-8.2,0-12.4-3.9-13-12.1c0-7.6,5.3-12.4,15.6-14.4
	c7.6-1.6,14.6-3.7,20.6-6.2V211.5z"/>
<path class="st0" d="M396.9,149.3c-29.4,0-44.2,14.6-44.2,44v60.5H379V188c0.2-10.7,6-16,17.5-16c11.5,0,17.3,5.3,17.9,16v52.9
	c0,8.2,4.3,12.3,12.8,12.8h13.2v-60.5C440.7,163.9,426.3,149.3,396.9,149.3z"/>
<path class="st0" d="M498.4,189.6c-13.4-2.5-20-6.6-20-11.9c0-5.3,5.1-8,15.2-8c8.6,0,13.8,2.5,15.6,7c1.6,4.1,5.4,6.2,11.5,6.4
	h16.3c-0.6-10.7-4.7-19.1-12.3-25.1c-7.8-5.8-18.3-8.8-31.5-8.8c-23.5,0.4-41,10.9-41,33.1c0.2,16.1,11.9,26.3,34.6,30.3
	c17.7,3.1,26.6,7.4,26.6,12.6c0,6.6-5.4,9.7-16.3,9.7c-12.6,0-20.8-3.9-21.4-15.2h-26.5c0,11.9,3.9,20.8,11.7,26.6
	c7,6,17.9,9.1,32.3,9.1c27.2,0,47.1-9.3,47.1-34.6c0-7-2.3-13.2-7.2-18.3C527.4,197.5,515.9,193.1,498.4,189.6z"/>
<path class="st1" d="M592.6,149.3c-23.7,0-37.2,9.3-40.3,28.4h25.9c1.4-4.9,6.4-7.2,15.6-7.2c10.7,0,16.1,2.9,16.7,8.8
	c0,5.6-5.6,8.9-16.7,10.3c-26.1,2.5-44,9.1-44.5,33.8c0,22.8,17.1,34.2,41.8,32.3c27.8-1.9,44.9-14.6,44.9-43v-35
	C635.4,158.6,621,149.3,592.6,149.3z M610.9,211.5c0,14.6-8.8,23.1-23.1,23.1c-8.2,0-12.4-3.9-13-12.1c0-7.6,5.3-12.4,15.6-14.4
	c7.6-1.6,14.6-3.7,20.6-6.2V211.5z"/>
<path class="st1" d="M694.3,172c8.2,0,13.6,3.7,16.7,10.7h28.2c-4.5-22.4-19.3-33.5-44.2-33.5c-31.7,0.6-47.5,18.3-47.5,53.5
	c0.8,35.4,16.7,53.3,47.9,53.3c23.9,0.6,39.1-12.8,43.8-33.8h-19.5c-3.3,0-6.2,1.2-8.8,3.7c-4.3,4.9-9.5,7.4-15.6,7.4
	c-14.4,0.2-21.6-10.1-21.6-30.5C673.9,182.4,680.7,172,694.3,172z"/>
<path class="st1" d="M808.4,250.8c0,1.8-0.3,3.6-0.8,5.2c-9.4,0.1-20.8,0-29.4-0.2c-4.8-0.1-8.8-0.3-11.1-0.5
	c-9.7-1-14.4-7-14.2-18.5v-106c0-3.6,2.9-6.5,6.5-6.5h7c6.9,0,12.5,5.6,12.5,12.5v16.9h15.6v5.6c0,7.4-5.6,12.8-12.8,12.8h-2.7v57
	c0,4.3,2.5,6.6,7.6,6.6h12.4C804.4,238.3,808.4,244.1,808.4,250.8z"/>
<path class="st1" d="M171.2,253.8l-32.6,22.7L116.4,292l-54.9-38.2L77,144.3l9.3-65.9l8.5-60.3c7.8,1.1,15,3.8,21.6,7.8
	c15.1,9.3,26.1,25.7,29,44.9l0.2,1.6l0.8,5.9L171.2,253.8z"/>
</svg>
